<svg width="31" height="30" viewBox="0 0 31 30" fill="none" xmlns="http://www.w3.org/2000/svg">
<path opacity="0.63" fill-rule="evenodd" clip-rule="evenodd" d="M15.4972 24.964C21.1399 24.964 25.7142 20.3897 25.7142 14.7471C25.7142 9.10438 21.1399 4.53009 15.4972 4.53009C9.85457 4.53009 5.28027 9.10438 5.28027 14.7471C5.28027 20.3897 9.85457 24.964 15.4972 24.964ZM20.2317 13.0959C20.7304 12.5971 20.7304 11.7885 20.2317 11.2898C19.7329 10.791 18.9243 10.791 18.4255 11.2898L14.2201 15.4952L12.5689 13.844C12.0702 13.3453 11.2616 13.3453 10.7628 13.844C10.2641 14.3427 10.2641 15.1514 10.7628 15.6501L13.3171 18.2044C13.8158 18.7031 14.6244 18.7031 15.1232 18.2044L20.2317 13.0959Z" fill="#8BB89B"/>
</svg>
