<svg width="21" height="21" viewBox="0 0 21 21" fill="none" xmlns="http://www.w3.org/2000/svg">
<path fill-rule="evenodd" clip-rule="evenodd" d="M10.5754 20.5731C16.218 20.5731 20.7923 15.9988 20.7923 10.3561C20.7923 4.71342 16.218 0.13913 10.5754 0.13913C4.93269 0.13913 0.358398 4.71342 0.358398 10.3561C0.358398 15.9988 4.93269 20.5731 10.5754 20.5731ZM15.3098 8.70492C15.8085 8.20617 15.8085 7.39754 15.3098 6.8988C14.811 6.40005 14.0024 6.40005 13.5037 6.8988L9.29825 11.1042L7.64707 9.45304C7.14832 8.95429 6.33969 8.95429 5.84094 9.45304C5.3422 9.95179 5.3422 10.7604 5.84094 11.2592L8.39519 13.8134C8.89393 14.3122 9.70256 14.3122 10.2013 13.8134L15.3098 8.70492Z" fill="#22C55E"/>
</svg>
