<svg width="69" height="71" viewBox="0 0 69 71" fill="none" xmlns="http://www.w3.org/2000/svg">
<path d="M50.9426 45.6845L46.925 49.8455C46.8094 49.9831 46.6602 50.0872 46.4926 50.1474L36.3865 53.5623H42.6049C42.9458 53.5623 43.2728 53.7003 43.5139 53.9461C43.755 54.1918 43.8905 54.5251 43.8905 54.8727C43.8905 55.2202 43.755 55.5535 43.5139 55.7993C43.2728 56.045 42.9458 56.1831 42.6049 56.1831H8.37419C8.03322 56.1831 7.70622 56.045 7.46512 55.7993C7.22402 55.5535 7.08857 55.2202 7.08857 54.8727C7.08857 54.5251 7.22402 54.1918 7.46512 53.9461C7.70622 53.7003 8.03322 53.5623 8.37419 53.5623H35.1123C35.003 53.5623 34.9015 53.4414 34.811 53.3493C34.6424 53.1802 34.5238 52.9661 34.469 52.7315C34.4141 52.497 34.4252 52.2514 34.5008 52.0229L35.2754 49.6311H8.37419C8.03322 49.6311 7.70622 49.493 7.46512 49.2473C7.22402 49.0016 7.08857 48.6683 7.08857 48.3207C7.08857 47.9732 7.22402 47.6399 7.46512 47.3941C7.70622 47.1484 8.03322 47.0103 8.37419 47.0103H36.1348L37.9479 41.4579C37.9928 41.2769 38.0822 41.1106 38.2077 40.9747L50.9426 27.9515V13.2677H39.3576C38.6476 13.2677 38.0864 12.7552 38.0864 12.031V0H0V70.106H50.9426V45.6845ZM8.37419 40.4584H26.5347C26.8756 40.4584 27.2026 40.5964 27.4437 40.8422C27.6848 41.0879 27.8203 41.4212 27.8203 41.7688C27.8203 42.1163 27.6848 42.4496 27.4437 42.6953C27.2026 42.9411 26.8756 43.0791 26.5347 43.0791H8.37419C8.03322 43.0791 7.70622 42.9411 7.46512 42.6953C7.22402 42.4496 7.08857 42.1163 7.08857 41.7688C7.08857 41.4212 7.22402 41.0879 7.46512 40.8422C7.70622 40.5964 8.03322 40.4584 8.37419 40.4584ZM42.6049 62.735H8.37419C8.03322 62.735 7.70622 62.597 7.46512 62.3512C7.22402 62.1055 7.08857 61.7722 7.08857 61.4246C7.08857 61.0771 7.22402 60.7438 7.46512 60.4981C7.70622 60.2523 8.03322 60.1142 8.37419 60.1142H42.605C42.946 60.1142 43.273 60.2523 43.5141 60.4981C43.7552 60.7438 43.8907 61.0771 43.8907 61.4246C43.8907 61.7722 43.7552 62.1055 43.5141 62.3512C43.273 62.597 42.946 62.735 42.605 62.735H42.6049Z" fill="#805C19"/>
<path d="M40.6573 1.93457V10.6472H49.2637L40.6573 1.93457ZM37.7559 50.3914L43.7063 48.3639L39.7452 44.3264L37.7559 50.3914ZM46.0836 47.0804L62.361 30.4528L57.3177 25.3123L41.0045 41.9035L46.0836 47.0804ZM68.0715 24.6188L63.0407 19.4919L59.1374 23.4612L64.1771 28.5973L68.0715 24.6188Z" fill="#805C19"/>
</svg>
