<svg width="69" height="69" viewBox="0 0 69 69" fill="none" xmlns="http://www.w3.org/2000/svg">
<path d="M46.6314 20.1126C44.2181 8.68763 39.0711 1.4596 34.3107 1.4596C29.5504 1.4596 24.4034 8.68763 21.99 20.1126H46.6314ZM20.5855 34.1023C20.5849 37.2216 20.789 40.3373 21.1963 43.4288H47.4252C47.8325 40.3373 48.0365 37.2216 48.036 34.1023C48.0365 30.9831 47.8325 27.8673 47.4252 24.7758H21.1963C20.789 27.8673 20.5849 30.9831 20.5855 34.1023ZM21.99 48.0921C24.4034 59.517 29.5504 66.7451 34.3107 66.7451C39.0711 66.7451 44.2181 59.517 46.6314 48.0921H21.99ZM51.3163 20.1126H65.7278C63.5624 15.0897 60.2723 10.654 56.1214 7.1612C51.9704 3.66841 47.0741 1.21577 41.8253 0C46.1648 3.89148 49.5686 11.0869 51.3163 20.1126ZM67.3726 24.7758H52.046C52.4234 27.8698 52.6121 30.9846 52.6111 34.1023C52.6114 37.2201 52.4219 40.3349 52.0438 43.4288H67.3703C69.0385 37.3274 69.0408 30.8773 67.3726 24.7758ZM41.8253 68.2047C47.075 66.9896 51.9722 64.5372 56.124 61.0444C60.2758 57.5516 63.5666 53.1155 65.7324 48.0921H51.3209C49.5686 57.1178 46.1648 64.3132 41.8253 68.2047ZM17.3051 48.0921H2.89363C5.05945 53.1155 8.35027 57.5516 12.5021 61.0444C16.6539 64.5372 21.5511 66.9896 26.8007 68.2047C22.4567 64.3132 19.0528 57.1178 17.3051 48.0921ZM26.7962 0C21.5465 1.21511 16.6493 3.66745 12.4975 7.16028C8.3457 10.6531 5.05488 15.0892 2.88905 20.1126H17.3006C19.0528 11.0869 22.4567 3.89148 26.7962 0ZM16.0104 34.1023C16.0101 30.9845 16.1996 27.8697 16.5777 24.7758H1.25117C-0.417058 30.8773 -0.417058 37.3274 1.25117 43.4288H16.5777C16.1996 40.3349 16.0101 37.2201 16.0104 34.1023Z" fill="#805C19"/>
</svg>
