<svg width="69" height="70" viewBox="0 0 69 70" fill="none" xmlns="http://www.w3.org/2000/svg">
<path d="M47.487 0C35.8824 0 26.4297 9.61859 26.4297 21.4631C26.4297 33.2914 35.8664 42.9262 47.487 42.9262C59.1076 42.9262 68.5443 33.2914 68.5443 21.4631C68.5443 9.63484 59.1076 0 47.487 0ZM47.487 39.7742C37.572 39.7742 29.5221 31.5529 29.5221 21.4631C29.5221 11.3571 37.588 3.15204 47.487 3.15204C57.4019 3.15204 65.4519 11.3733 65.4519 21.4631C65.4678 31.5529 57.4019 39.7742 47.487 39.7742Z" fill="#805C19"/>
<path d="M32.917 39.1567L28.7247 43.4298L25.9351 40.5865L30.1274 36.3134C30.9723 37.337 31.9127 38.2956 32.917 39.1567ZM28.6768 47.8979L21.5355 40.619C21.8384 40.4078 22.205 40.294 22.5876 40.294C23.0817 40.294 23.56 40.489 23.9106 40.8464L28.4537 45.477C29.0913 46.1432 29.171 47.1668 28.6768 47.8979ZM19.293 42.8743L20.3636 41.7831L27.5425 49.1002L26.472 50.1916L19.293 42.8743ZM25.3293 51.3749L10.8554 66.1277L3.6663 58.8001L18.1402 44.0472L25.3293 51.3749ZM1.43193 61.0573L2.50265 59.9661L9.69274 67.2948L8.62218 68.3861L1.43193 61.0573ZM7.46012 69.5397C7.15725 69.7509 6.79062 69.8647 6.40805 69.8647C6.15301 69.8647 5.9139 69.8159 5.69073 69.7185C5.46757 69.621 5.26034 69.491 5.085 69.3123L0.541975 64.6817C0.191285 64.3242 0 63.8531 0 63.3331C0 62.9432 0.111583 62.5857 0.318809 62.2608L7.46012 69.5397Z" fill="#805C19"/>
</svg>
