<svg width="80" height="85" viewBox="0 0 80 85" fill="none" xmlns="http://www.w3.org/2000/svg">
<path d="M79.6474 1.74437C79.3691 0.745297 78.5061 0 77.4363 0H68.0879C66.7961 0 65.7507 1.06546 65.7507 2.38215C65.7507 3.69885 66.7961 4.76431 68.0879 4.76431H73.5537L62.3928 17.6086C47.3453 34.9583 25.2013 44.1286 2.53769 42.1211C1.29388 41.9885 0.120647 42.9772 0.00893296 44.2892C-0.102937 45.5989 0.848892 46.7528 2.13602 46.8667C4.32247 47.0598 6.16739 47.1551 8.34714 47.1551C30.1869 47.1551 51.3212 37.5635 65.8941 20.7629L75.0992 10.1734V11.9108C75.0992 13.2275 76.1445 14.2929 77.4363 14.2929C78.7281 14.2929 79.7734 13.2275 79.7734 11.9108V4.73286L79.6474 1.74437Z" fill="#805C19"/>
<path d="M77.4364 79.781H74.9435V26.2238C74.9435 25.2235 74.3296 24.3302 73.4076 23.9859C72.4878 23.6486 71.4539 23.923 70.8194 24.6885L69.3838 26.4262C67.0102 29.2968 64.4243 32.0257 61.6946 34.531C61.451 34.7543 61.2562 35.0273 61.1229 35.3323C60.9896 35.6373 60.9207 35.9674 60.9208 36.3013V79.781H56.2466V43.7341C56.2462 43.3023 56.131 42.8787 55.9132 42.5084C55.6954 42.1381 55.3831 41.8349 55.0096 41.6311C54.2496 41.2217 53.3207 41.2636 52.6063 41.7568C49.6918 43.751 46.6554 45.5537 43.5157 47.1538C43.1273 47.3515 42.8007 47.6556 42.5726 48.032C42.3444 48.4084 42.2236 48.8422 42.2239 49.2847V79.781H37.5497V53.3464C37.5496 52.9647 37.4595 52.5887 37.2872 52.2498C37.1148 51.911 36.8652 51.6193 36.5592 51.3992C35.9406 50.9549 35.1418 50.8478 34.4274 51.1038C31.4509 52.1853 28.4156 53.091 25.3368 53.8163C24.8222 53.9381 24.3632 54.2338 24.0346 54.6554C23.706 55.077 23.527 55.5995 23.527 56.138V79.781H18.8527V57.7804C18.8526 57.4449 18.783 57.1131 18.6485 56.8069C18.5139 56.5006 18.3176 56.2268 18.0721 56.0031C17.5723 55.5518 16.8944 55.3215 16.2509 55.4146C13.2344 55.7645 10.201 55.9423 7.16497 55.9472C5.87551 55.9496 4.83019 57.0151 4.83019 58.3294V79.781H2.33712C1.04531 79.781 0 80.8465 0 82.1632C0 83.4799 1.04531 84.5453 2.33712 84.5453H77.4364C78.7282 84.5453 79.7735 83.4799 79.7735 82.1632C79.7735 80.8465 78.7282 79.781 77.4364 79.781Z" fill="#805C19"/>
</svg>
