<svg width="69" height="59" viewBox="0 0 69 59" fill="none" xmlns="http://www.w3.org/2000/svg">
<path opacity="0.5" fill-rule="evenodd" clip-rule="evenodd" d="M61.0612 0.000136738C61.0612 6.12196e-05 61.0612 0 61.0611 0H7.61532C5.59633 0.00246043 3.66072 0.821056 2.23309 2.27622C0.805464 3.73139 0.00237835 5.70431 0 7.76221L0 11.9236C0 15.2373 2.68629 17.9236 6 17.9236H62.6765C65.9902 17.9236 68.6765 15.2373 68.6765 11.9236V7.76221C68.6738 5.70446 67.8706 3.7318 66.443 2.27676C65.0155 0.821754 63.0802 0.0030953 61.0614 0.000273477C61.0613 0.000273371 61.0612 0.000212182 61.0612 0.000136738ZM6 21.5929C2.68629 21.5929 0 24.2792 0 27.5929V50.6645C0.00241385 52.7224 0.805515 54.6953 2.23314 56.1504C3.66077 57.6056 5.59635 58.4242 7.61532 58.4266H61.0612C63.0801 58.4238 65.0155 57.6051 66.443 56.15C67.8706 54.695 68.6738 52.7223 68.6765 50.6645V27.593C68.6765 24.2792 65.9902 21.5929 62.6765 21.5929H6ZM50.329 33.5372C50.3291 33.5372 50.3291 33.5373 50.329 33.5374L47.1069 36.8222C46.3699 37.5735 46.3699 38.7766 47.1069 39.5279L50.3288 42.8128C50.4959 42.9831 50.6286 43.1853 50.7191 43.4078C50.8096 43.6303 50.8562 43.8689 50.8562 44.1098C50.8563 44.3507 50.8098 44.5892 50.7194 44.8118C50.629 45.0344 50.4965 45.2366 50.3294 45.407C50.1624 45.5774 49.964 45.7126 49.7457 45.8048C49.5273 45.8971 49.2933 45.9446 49.057 45.9447C48.8206 45.9447 48.5866 45.8973 48.3682 45.8052C48.1499 45.7131 47.9514 45.578 47.7843 45.4077L47.5165 45.1348C45.1646 42.7376 41.3034 42.7373 38.9512 45.1341L38.6829 45.4076C38.3453 45.7517 37.8875 45.9451 37.4101 45.9451C36.9326 45.9452 36.4748 45.7519 36.1371 45.4078C35.7995 45.0638 35.6098 44.5971 35.6098 44.1105C35.6097 43.6239 35.7993 43.1572 36.1369 42.8131L36.5643 42.3775C38.8544 40.0439 38.8544 36.3062 36.5643 33.9725L36.1369 33.537C35.9697 33.3666 35.8372 33.1643 35.7467 32.9417C35.6563 32.7191 35.6097 32.4805 35.6098 32.2395C35.6098 31.9986 35.6564 31.76 35.7469 31.5374C35.8374 31.3148 35.97 31.1125 36.1371 30.9422C36.3043 30.7718 36.5028 30.6367 36.7212 30.5445C36.9396 30.4523 37.1737 30.4049 37.4101 30.4049C37.6465 30.405 37.8805 30.4524 38.0989 30.5447C38.3173 30.6369 38.5157 30.7721 38.6829 30.9425L38.9512 31.2159C41.3034 33.6127 45.1646 33.6124 47.5165 31.2153L47.7843 30.9423C47.9514 30.772 48.1499 30.637 48.3682 30.5448C48.5866 30.4527 48.8206 30.4053 49.057 30.4054C49.2933 30.4054 49.5273 30.453 49.7457 30.5452C49.964 30.6374 50.1624 30.7726 50.3294 30.943C50.4965 31.1134 50.629 31.3157 50.7194 31.5382C50.8098 31.7608 50.8563 31.9994 50.8562 32.2403C50.8562 32.4812 50.8096 32.7197 50.7191 32.9422C50.6286 33.1647 50.496 33.3668 50.3289 33.5371C50.3289 33.5372 50.3289 33.5372 50.329 33.5372ZM31.5133 32.2332V38.9706C31.5173 39.8897 31.3431 40.8006 31.0008 41.6509C30.6585 42.5012 30.1547 43.2742 29.5185 43.9256C28.8823 44.5769 28.1261 45.0938 27.2934 45.4465C26.4607 45.7991 25.5678 45.9807 24.6661 45.9807C23.7643 45.9807 22.8715 45.7991 22.0387 45.4465C21.206 45.0938 20.4498 44.5769 19.8136 43.9256C19.1774 43.2742 18.6737 42.5012 18.3314 41.6509C17.989 40.8006 17.8149 39.8897 17.8189 38.9706V32.2332C17.8189 31.7467 18.0085 31.2801 18.346 30.9361C18.6835 30.5921 19.1413 30.3989 19.6186 30.3989C20.0959 30.3989 20.5536 30.5921 20.8911 30.9361C21.2286 31.2801 21.4182 31.7467 21.4182 32.2332V38.9706C21.4182 39.8484 21.7604 40.6903 22.3694 41.3111C22.9784 41.9318 23.8044 42.2805 24.6656 42.2805C25.5269 42.2805 26.3529 41.9318 26.9619 41.3111C27.5709 40.6903 27.913 39.8484 27.913 38.9706V32.2332C27.9171 31.7493 28.1086 31.2867 28.4457 30.946C28.7828 30.6053 29.2384 30.4142 29.7131 30.4142C30.1879 30.4142 30.6434 30.6053 30.9806 30.946C31.3177 31.2867 31.5092 31.7493 31.5133 32.2332ZM38.3355 10.796C38.3354 10.5551 38.382 10.3165 38.4724 10.094C38.5628 9.87141 38.6954 9.66917 38.8625 9.49883C39.0296 9.32849 39.228 9.19337 39.4464 9.1012C39.6647 9.00903 39.8988 8.96161 40.1351 8.96164H57.7265C58.2013 8.96582 58.6552 9.16097 58.9894 9.50461C59.3237 9.84826 59.5112 10.3126 59.5112 10.7965C59.5112 11.2804 59.3237 11.7447 58.9894 12.0883C58.6552 12.432 58.2013 12.6271 57.7265 12.6313H40.1351C39.8987 12.6313 39.6646 12.5838 39.4462 12.4916C39.2278 12.3993 39.0294 12.2641 38.8622 12.0937C38.6951 11.9233 38.5626 11.7209 38.4722 11.4983C38.3818 11.2756 38.3353 11.037 38.3355 10.796ZM9.15128 10.796C9.15098 10.5551 9.1973 10.3165 9.28757 10.0939C9.37785 9.87125 9.51032 9.66895 9.67739 9.49857C9.84447 9.32818 10.0429 9.19306 10.2612 9.10092C10.4796 9.00879 10.7137 8.96146 10.95 8.96164H10.952C11.3081 8.96175 11.6561 9.06947 11.9521 9.27118C12.2481 9.47289 12.4787 9.75954 12.6149 10.0949C12.751 10.4302 12.7866 10.7991 12.717 11.1551C12.6474 11.511 12.4759 11.8379 12.2241 12.0944C11.9722 12.3509 11.6514 12.5256 11.3022 12.5963C10.9529 12.667 10.591 12.6305 10.2621 12.4916C9.93318 12.3526 9.6521 12.1173 9.45438 11.8155C9.25665 11.5137 9.15118 11.1589 9.15128 10.796ZM16.9435 10.796C16.9432 10.5551 16.9895 10.3165 17.0798 10.0939C17.1701 9.87129 17.3025 9.669 17.4696 9.49862C17.6366 9.32823 17.835 9.1931 18.0534 9.10096C18.2718 9.00882 18.5058 8.96148 18.7421 8.96164H18.7451C19.1011 8.96191 19.449 9.06977 19.7449 9.27158C20.0408 9.47339 20.2713 9.76009 20.4073 10.0954C20.5434 10.4308 20.5788 10.7997 20.5092 11.1556C20.4395 11.5114 20.2679 11.8382 20.016 12.0947C19.7641 12.3511 19.4433 12.5257 19.0941 12.5964C18.7449 12.667 18.383 12.6305 18.0541 12.4915C17.7253 12.3525 17.4442 12.1172 17.2466 11.8154C17.0489 11.5136 16.9434 11.1589 16.9435 10.796ZM24.7344 10.796C24.7345 10.796 24.7346 10.7959 24.7346 10.7959C24.7345 10.3095 24.9239 9.8431 25.2612 9.49913C25.5985 9.15512 26.0561 8.96179 26.5333 8.96164H26.5372C26.8931 8.96218 27.2409 9.07027 27.5366 9.27224C27.8323 9.47422 28.0627 9.76101 28.1985 10.0964C28.3343 10.4317 28.3696 10.8006 28.2998 11.1564C28.2299 11.5122 28.0582 11.8389 27.8063 12.0952C27.5544 12.3515 27.2336 12.5259 26.8844 12.5965C26.5352 12.667 26.1734 12.6304 25.8446 12.4914C25.5158 12.3523 25.2349 12.117 25.0372 11.8153C24.8396 11.5136 24.7342 11.1589 24.7343 10.7961C24.7343 10.7961 24.7343 10.796 24.7344 10.796Z" fill="#805C19"/>
</svg>
