<svg width="78" height="68" viewBox="0 0 78 68" fill="none" xmlns="http://www.w3.org/2000/svg">
<path opacity="0.5" d="M5.41818 21.17V35.8969C5.41818 36.6292 5.13276 37.3316 4.62471 37.8494C4.11666 38.3673 3.42759 38.6582 2.70909 38.6582C1.9906 38.6582 1.30153 38.3673 0.793475 37.8494C0.285421 37.3316 0 36.6292 0 35.8969V21.17C0 20.4376 0.285421 19.7353 0.793475 19.2174C1.30153 18.6996 1.9906 18.4087 2.70909 18.4087C3.42759 18.4087 4.11666 18.6996 4.62471 19.2174C5.13276 19.7353 5.41818 20.4376 5.41818 21.17ZM74.9516 18.4087C74.5958 18.4087 74.2435 18.4801 73.9148 18.6189C73.5861 18.7576 73.2875 18.961 73.0359 19.2174C72.7844 19.4738 72.5848 19.7782 72.4487 20.1133C72.3125 20.4483 72.2425 20.8073 72.2425 21.17V35.8969C72.2425 36.6292 72.5279 37.3316 73.0359 37.8494C73.544 38.3673 74.2331 38.6582 74.9516 38.6582C75.6701 38.6582 76.3591 38.3673 76.8672 37.8494C77.3752 37.3316 77.6606 36.6292 77.6606 35.8969V21.17C77.6606 20.4376 77.3752 19.7353 76.8672 19.2174C76.3591 18.6996 75.6701 18.4087 74.9516 18.4087ZM13.5455 50.6238C13.5455 52.5767 14.3066 54.4496 15.6614 55.8306C17.0162 57.2115 18.8537 57.9873 20.7697 57.9873H29.6736C30.2681 57.9872 30.8535 58.1367 31.3777 58.4225C31.902 58.7083 32.3489 59.1216 32.6789 59.6256L37.3277 66.7314C37.4926 66.9835 37.7161 67.1902 37.9782 67.3332C38.2403 67.4762 38.533 67.551 38.8303 67.551C39.1276 67.551 39.4203 67.4762 39.6825 67.3332C39.9446 67.1902 40.168 66.9835 40.333 66.7314L44.9818 59.6256C45.3117 59.1216 45.7587 58.7083 46.2829 58.4225C46.8072 58.1367 47.3925 57.9872 47.9871 57.9873H56.8909C58.8069 57.9873 60.6444 57.2115 61.9992 55.8306C63.3541 54.4496 64.1152 52.5767 64.1152 50.6238V43.2603H13.5455V50.6238ZM64.1152 17.4882V37.7377H13.5455V17.4882C13.5455 15.5353 14.3066 13.6624 15.6614 12.2815C17.0162 10.9006 18.8537 10.1248 20.7697 10.1248H36.1212V2.7613C36.1212 2.02896 36.4067 1.32661 36.9147 0.808766C37.4228 0.290922 38.1118 0 38.8303 0C39.5488 0 40.2379 0.290922 40.7459 0.808766C41.254 1.32661 41.5394 2.02896 41.5394 2.7613V10.1248H56.8909C58.8069 10.1248 60.6444 10.9006 61.9992 12.2815C63.3541 13.6624 64.1152 15.5353 64.1152 17.4882ZM31.6061 28.5334C31.6061 27.8052 31.3942 27.0934 30.9973 26.488C30.6004 25.8825 30.0363 25.4106 29.3763 25.1319C28.7162 24.8533 27.9899 24.7804 27.2893 24.9224C26.5886 25.0645 25.945 25.4151 25.4398 25.93C24.9346 26.4449 24.5906 27.101 24.4512 27.8151C24.3119 28.5293 24.3834 29.2696 24.6568 29.9424C24.9302 30.6151 25.3932 31.1901 25.9872 31.5947C26.5812 31.9992 27.2795 32.2151 27.994 32.2151C28.9519 32.2151 29.8707 31.8273 30.5481 31.1368C31.2255 30.4463 31.6061 29.5099 31.6061 28.5334ZM53.2788 28.5334C53.2788 27.8052 53.067 27.0934 52.6701 26.488C52.2732 25.8825 51.709 25.4106 51.049 25.1319C50.389 24.8533 49.6627 24.7804 48.962 24.9224C48.2613 25.0645 47.6177 25.4151 47.1125 25.93C46.6074 26.4449 46.2633 27.101 46.124 27.8151C45.9846 28.5293 46.0561 29.2696 46.3295 29.9424C46.6029 30.6151 47.0659 31.1901 47.6599 31.5947C48.2539 31.9992 48.9523 32.2151 49.6667 32.2151C50.6247 32.2151 51.5434 31.8273 52.2208 31.1368C52.8983 30.4463 53.2788 29.5099 53.2788 28.5334Z" fill="#805C19"/>
</svg>
