<svg width="70" height="81" viewBox="0 0 70 81" fill="none" xmlns="http://www.w3.org/2000/svg">
<path opacity="0.5" d="M65.0327 21.8579L35.2889 0.242148C34.8464 -0.0807161 34.2794 -0.0807161 33.8369 0.242148L4.09307 21.8579C3.69206 22.1485 3.44315 22.6651 3.44315 23.2301V29.4937C3.44315 30.3816 4.06541 31.108 4.82594 31.108H64.2998C65.0604 31.108 65.6826 30.3816 65.6826 29.4937V23.2301C65.6826 22.6651 65.4337 22.1485 65.0327 21.8579ZM34.5698 25.135C31.4032 25.135 28.8312 22.1324 28.8312 18.4356C28.8312 14.7388 31.4032 11.7361 34.5698 11.7361C37.7364 11.7361 40.3084 14.7388 40.3084 18.4356C40.3084 22.1324 37.7364 25.135 34.5698 25.135ZM49.1306 39.453C49.1306 36.6273 51.4213 34.3366 54.2469 34.3366C57.0726 34.3366 59.3633 36.6273 59.3633 39.453V53.8387C59.3633 56.6644 57.0726 58.9551 54.2469 58.9551C51.4213 58.9551 49.1306 56.6644 49.1306 53.8387V39.453ZM29.4535 39.453C29.4535 36.6273 31.7441 34.3366 34.5698 34.3366C37.3955 34.3366 39.6861 36.6273 39.6861 39.453V53.8387C39.6861 56.6644 37.3955 58.9551 34.5698 58.9551C31.7441 58.9551 29.4535 56.6644 29.4535 53.8387V39.453ZM9.76251 39.453C9.76251 36.6273 12.0532 34.3366 14.8788 34.3366C17.7045 34.3366 19.9952 36.6273 19.9952 39.453V53.8387C19.9952 56.6644 17.7045 58.9551 14.8788 58.9551C12.0532 58.9551 9.76251 56.6644 9.76251 53.8387V39.453ZM69.1396 71.4176V79.1018C69.1396 79.9897 68.5174 80.7161 67.7568 80.7161H1.38279C0.608429 80.7161 0 79.9897 0 79.1018V71.4176C0 70.5298 0.608429 69.8033 1.38279 69.8033C3.21566 69.8033 4.70149 68.3175 4.70149 66.4846V63.798C4.70149 62.9101 5.32375 62.1837 6.08429 62.1837H63.0553C63.8159 62.1837 64.4381 62.9101 64.4381 63.798V66.4846C64.4381 68.3175 65.924 69.8033 67.7568 69.8033C68.5174 69.8033 69.1396 70.5298 69.1396 71.4176Z" fill="#805C19"/>
</svg>
