<svg width="104" height="104" viewBox="0 0 104 104" fill="none" xmlns="http://www.w3.org/2000/svg">
<path d="M63.8942 2.85102C63.4575 3.11947 62.9896 3.3311 62.5013 3.48095C61.5912 2.41441 60.0059 2.30203 58.9595 3.22961C58.6843 3.4736 58.4645 3.77577 58.3155 4.11509C58.1665 4.45442 58.0918 4.82276 58.0967 5.19449V5.76543C57.1613 5.79029 56.2333 5.59079 55.3875 5.18301C54.5416 4.77523 53.8016 4.17059 53.2271 3.41781C53.1482 3.31445 52.9879 3.34066 52.946 3.46401C52.5652 4.5748 51.5249 8.64193 55.8553 10.6036C54.8869 11.2734 53.7598 11.6654 52.5918 11.7387C52.4218 11.7492 52.3765 11.983 52.5311 12.0558C57.4504 14.3718 63.1402 11.4878 63.1402 5.17706C63.1395 5.01806 63.1245 4.85947 63.0954 4.70327C63.5575 4.23824 63.9113 3.67329 64.1305 3.05019C64.1814 2.90502 64.0241 2.77167 63.8941 2.85114L63.8942 2.85102ZM96.0176 14.7753C95.7497 14.7753 95.4929 14.6668 95.3035 14.4738C95.1141 14.2808 95.0077 14.019 95.0076 13.746V3.61199C95.0076 1.62029 96.5973 0 98.5513 0H99.7472C100.015 3.23205e-05 100.272 0.108493 100.461 0.30153C100.651 0.494567 100.757 0.756372 100.757 1.02937C100.757 1.16452 100.731 1.29834 100.68 1.4232C100.629 1.54805 100.555 1.66149 100.461 1.75703C100.367 1.85257 100.256 1.92835 100.134 1.98003C100.011 2.03172 99.8798 2.05829 99.7472 2.05825H98.5513C97.711 2.05825 97.0271 2.75534 97.0271 3.61186V13.746C97.0271 14.3145 96.5749 14.7753 96.0176 14.7753Z" fill="#805C19"/>
<path d="M98.3674 8.21889H93.7835C93.5183 8.21473 93.2654 8.10445 93.0793 7.91186C92.8933 7.71927 92.789 7.45982 92.789 7.18952C92.789 6.91923 92.8933 6.65978 93.0793 6.46719C93.2654 6.2746 93.5183 6.16432 93.7835 6.16016H98.3674C98.6326 6.16432 98.8855 6.2746 99.0716 6.46719C99.2576 6.65978 99.3619 6.91923 99.3619 7.18952C99.3619 7.45982 99.2576 7.71927 99.0716 7.91186C98.8855 8.10445 98.6326 8.21473 98.3674 8.21889ZM56.046 46.3564V42.6541C56.046 42.3813 56.3352 42.2113 56.5669 42.3476L59.7112 44.1987L62.856 46.05C63.0871 46.1865 63.0871 46.5271 62.856 46.6637L59.7112 48.5149L56.5668 50.3661C56.3351 50.5023 56.0459 50.3319 56.0459 50.0595L56.046 46.3564ZM100.838 53.2419H92.809C91.367 53.2419 90.1936 52.0458 90.1936 50.5759V42.3927C90.1936 40.9223 91.367 39.7268 92.809 39.7268H100.838C102.28 39.7268 103.453 40.9223 103.453 42.3925V50.5759C103.453 52.0458 102.28 53.2419 100.838 53.2419ZM92.809 41.785C92.6509 41.7852 92.4994 41.8492 92.3876 41.9632C92.2759 42.0771 92.213 42.2316 92.2129 42.3927V50.5759C92.2132 50.7369 92.276 50.8913 92.3878 51.0051C92.4995 51.1189 92.651 51.1828 92.809 51.1829H100.838C100.996 51.1827 101.147 51.1187 101.259 51.0049C101.37 50.8912 101.433 50.7369 101.434 50.5759V42.3927C101.433 42.2316 101.371 42.0771 101.259 41.9632C101.147 41.8493 100.996 41.7852 100.838 41.785H92.809Z" fill="#805C19"/>
<path d="M94.8618 51.4171C93.2745 51.4171 91.9834 50.1007 91.9834 48.4827C91.9834 46.8649 93.2745 45.5488 94.8618 45.5488C96.4491 45.5488 97.7408 46.8649 97.7408 48.4827C97.7408 50.1007 96.4492 51.4171 94.8618 51.4171ZM94.8618 47.6072C94.3882 47.6072 94.0027 47.9999 94.0027 48.4827C94.0027 48.9655 94.3882 49.3584 94.8618 49.3584C95.0896 49.3582 95.308 49.2658 95.469 49.1017C95.6301 48.9375 95.7206 48.7149 95.7208 48.4827C95.7213 48.0001 95.336 47.6072 94.8618 47.6072Z" fill="#805C19"/>
<path d="M37.3342 94.932L25.9015 80.7555C25.4632 80.2292 24.8394 79.8998 24.1649 79.8382C23.4903 79.7766 22.819 79.9878 22.2959 80.4262C21.7727 80.8646 21.4397 81.4951 21.3686 82.1816C21.2975 82.8681 21.4941 83.5556 21.9159 84.0957L33.3483 98.2724C33.5634 98.5392 33.828 98.7602 34.127 98.9227C34.4259 99.0853 34.7534 99.1862 35.0906 99.2197C35.4278 99.2533 35.7682 99.2187 36.0923 99.1182C36.4165 99.0176 36.718 98.8529 36.9796 98.6335C37.2414 98.4142 37.4583 98.1446 37.6178 97.8399C37.7773 97.5352 37.8764 97.2015 37.9093 96.8577C37.9422 96.514 37.9084 96.1671 37.8098 95.8367C37.7111 95.5063 37.5494 95.1987 37.3342 94.932Z" fill="#805C19"/>
<path d="M29.0616 78.5456L20.3659 85.0906C20.115 85.2795 19.83 85.4161 19.5274 85.4926C19.2247 85.5692 18.9101 85.5842 18.6017 85.5369C18.2933 85.4895 17.9971 85.3807 17.73 85.2166C17.4629 85.0526 17.2301 84.8365 17.0449 84.5807L9.67897 74.4135C9.3049 73.8972 9.14739 73.2506 9.24107 72.6159C9.33476 71.9812 9.67198 71.4104 10.1785 71.0292L18.8742 64.4841C19.0384 64.3605 19.2707 64.3963 19.3919 64.5637L29.1394 78.0181C29.2607 78.1855 29.2255 78.4222 29.0616 78.5456Z" fill="#805C19"/>
<path d="M52.7122 71.1926C44.4487 71.9214 36.3666 74.0751 28.8105 77.5617L19.7245 65.0203C22.2668 62.0965 24.5784 58.9725 26.6378 55.6775C29.0261 51.8534 31.0648 47.8139 32.7285 43.6098L52.7122 71.1926Z" fill="#805C19"/>
<path d="M55.6693 75.275C55.1188 75.6894 54.4292 75.864 53.7524 75.7602C53.0756 75.6565 52.4669 75.2829 52.0603 74.7218L29.2293 43.2084C28.8352 42.6465 28.6737 41.9493 28.7796 41.2671C28.8856 40.5849 29.2505 39.9726 29.7956 39.5623C30.3407 39.152 31.0223 38.9767 31.6931 39.0742C32.3639 39.1717 32.9702 39.5342 33.3811 40.0834L56.2122 71.5971C56.6187 72.1583 56.7899 72.8611 56.6881 73.5509C56.5862 74.2407 56.2198 74.861 55.6693 75.2755L55.6693 75.275Z" fill="#805C19"/>
</svg>
