<svg width="39" height="39" viewBox="0 0 39 39" fill="none" xmlns="http://www.w3.org/2000/svg">
<path fill-rule="evenodd" clip-rule="evenodd" d="M0 19.3801C0 8.67679 8.67679 0 19.3801 0C30.0836 0 38.7603 8.6768 38.7603 19.3801V28.4646C38.7603 29.468 37.9468 30.2814 36.9434 30.2814C35.9399 30.2814 35.1265 29.468 35.1265 28.4646V19.3801C35.1265 10.6837 28.0767 3.63377 19.3801 3.63377C10.6837 3.63377 3.63377 10.6837 3.63377 19.3801V28.4646C3.63377 29.468 2.82033 30.2814 1.81689 30.2814C0.813448 30.2814 0 29.468 0 28.4646V19.3801Z" fill="#101010"/>
<path d="M1.81641 27.1321C1.81641 23.5196 4.74482 20.5913 8.3572 20.5913C10.7654 20.5913 12.7177 22.5436 12.7177 24.9518V31.9771C12.7177 34.3854 10.7654 36.3377 8.3572 36.3377C4.74482 36.3377 1.81641 33.4093 1.81641 29.7969V27.1321Z" fill="#101010"/>
<path fill-rule="evenodd" clip-rule="evenodd" d="M8.35768 22.4082C5.74872 22.4082 3.63377 24.5231 3.63377 27.1321V29.7969C3.63377 32.4059 5.74872 34.5208 8.35768 34.5208C9.76248 34.5208 10.9013 33.3819 10.9013 31.9771V24.9518C10.9013 23.547 9.76248 22.4082 8.35768 22.4082ZM0 27.1321C0 22.5162 3.74187 18.7744 8.35768 18.7744C11.7694 18.7744 14.5351 21.5402 14.5351 24.9518V31.9771C14.5351 35.3888 11.7694 38.1545 8.35768 38.1545C3.74187 38.1545 0 34.4128 0 29.7969V27.1321Z" fill="#101010"/>
<path d="M26.042 24.9518C26.042 22.5436 27.9943 20.5913 30.4025 20.5913C34.015 20.5913 36.9433 23.5196 36.9433 27.1321V29.7969C36.9433 33.4093 34.015 36.3377 30.4025 36.3377C27.9943 36.3377 26.042 34.3854 26.042 31.9771V24.9518Z" fill="#101010"/>
<path fill-rule="evenodd" clip-rule="evenodd" d="M30.403 22.4082C28.9982 22.4082 27.8594 23.547 27.8594 24.9518V31.9771C27.8594 33.3819 28.9982 34.5208 30.403 34.5208C33.012 34.5208 35.1269 32.4059 35.1269 29.7969V27.1321C35.1269 24.5231 33.012 22.4082 30.403 22.4082ZM24.2256 24.9518C24.2256 21.5402 26.9913 18.7744 30.403 18.7744C35.0189 18.7744 38.7607 22.5162 38.7607 27.1321V29.7969C38.7607 34.4128 35.0189 38.1545 30.403 38.1545C26.9913 38.1545 24.2256 35.3888 24.2256 31.9771V24.9518Z" fill="#101010"/>
</svg>
