<svg width="39" height="39" viewBox="0 0 39 39" fill="none" xmlns="http://www.w3.org/2000/svg">
<path fill-rule="evenodd" clip-rule="evenodd" d="M0 19.3801C0 8.67679 8.67679 0 19.3801 0C30.0836 0 38.7603 8.6768 38.7603 19.3801V28.4646C38.7603 29.468 37.9468 30.2814 36.9434 30.2814C35.9399 30.2814 35.1265 29.468 35.1265 28.4646V19.3801C35.1265 10.6837 28.0767 3.63377 19.3801 3.63377C10.6837 3.63377 3.63377 10.6837 3.63377 19.3801V28.4646C3.63377 29.468 2.82033 30.2814 1.81689 30.2814C0.813448 30.2814 0 29.468 0 28.4646V19.3801Z" fill="#FAB634"/>
<path d="M1.81689 27.1321C1.81689 23.5196 4.7453 20.5913 8.35769 20.5913C10.7659 20.5913 12.7182 22.5436 12.7182 24.9518V31.9771C12.7182 34.3854 10.7659 36.3377 8.35769 36.3377C4.7453 36.3377 1.81689 33.4093 1.81689 29.7969V27.1321Z" fill="#FAB634"/>
<path fill-rule="evenodd" clip-rule="evenodd" d="M8.35768 22.4082C5.74872 22.4082 3.63377 24.5231 3.63377 27.1321V29.7969C3.63377 32.4059 5.74872 34.5208 8.35768 34.5208C9.76248 34.5208 10.9013 33.3819 10.9013 31.9771V24.9518C10.9013 23.547 9.76248 22.4082 8.35768 22.4082ZM0 27.1321C0 22.5162 3.74187 18.7744 8.35768 18.7744C11.7694 18.7744 14.5351 21.5402 14.5351 24.9518V31.9771C14.5351 35.3888 11.7694 38.1545 8.35768 38.1545C3.74187 38.1545 0 34.4128 0 29.7969V27.1321Z" fill="#FAB634"/>
<path d="M26.0421 24.9518C26.0421 22.5436 27.9944 20.5913 30.4026 20.5913C34.0151 20.5913 36.9434 23.5196 36.9434 27.1321V29.7969C36.9434 33.4093 34.0151 36.3377 30.4026 36.3377C27.9944 36.3377 26.0421 34.3854 26.0421 31.9771V24.9518Z" fill="#FAB634"/>
<path fill-rule="evenodd" clip-rule="evenodd" d="M30.4026 22.4082C28.9979 22.4082 27.859 23.547 27.859 24.9518V31.9771C27.859 33.3819 28.9978 34.5208 30.4026 34.5208C33.0117 34.5208 35.1265 32.4059 35.1265 29.7969V27.1321C35.1265 24.5231 33.0117 22.4082 30.4026 22.4082ZM24.2252 24.9518C24.2252 21.5402 26.991 18.7744 30.4026 18.7744C35.0185 18.7744 38.7603 22.5162 38.7603 27.1321V29.7969C38.7603 34.4128 35.0185 38.1545 30.4026 38.1545C26.991 38.1545 24.2252 35.3888 24.2252 31.9771V24.9518Z" fill="#FAB634"/>
</svg>
