<svg width="287" height="108" viewBox="0 0 287 108" fill="none" xmlns="http://www.w3.org/2000/svg">
<path d="M0.380005 93.4901H10.2792V95.2341H2.38839V100.13H9.42283V101.853H2.38839V107.524H0.380005V93.4901ZM21.4527 102.394C21.4527 104.678 20.1682 105.923 18.17 105.923C16.3451 105.923 15.3053 104.882 15.3053 102.791V96.8965H13.3784V103.016C13.3784 106.147 15.2033 107.646 17.9457 107.646C19.4444 107.646 20.7697 107.024 21.5547 105.923V107.524H23.3796V96.8965H21.4527V102.394ZM31.9025 106.025C30.8422 106.025 30.2407 105.382 30.2407 104.24V98.4875H33.289V96.9067H30.2407V94.5813H28.3139V96.9067H26.5094V98.4875H28.3139V104.321C28.3139 106.463 29.5373 107.646 31.6782 107.646C32.5345 107.646 33.4215 107.401 34.0026 106.902L33.4011 105.515C33.0035 105.831 32.4632 106.014 31.9025 106.014V106.025ZM45.3087 102.394C45.3087 104.678 44.0241 105.923 42.0259 105.923C40.2011 105.923 39.1612 104.882 39.1612 102.791V96.8965H37.2344V103.016C37.2344 106.147 39.0592 107.646 41.8017 107.646C43.3003 107.646 44.6256 107.024 45.4106 105.923V107.524H47.2355V96.8965H45.3087V102.394ZM53.7398 98.6813V96.8965H51.8945V107.524H53.8214V102.231C53.8214 99.9052 55.1059 98.6405 57.1653 98.6405C57.308 98.6405 57.4405 98.6405 57.6037 98.6609V96.7945C55.738 96.7945 54.4229 97.437 53.7398 98.6813ZM70.4696 102.271C70.4696 102.435 70.4492 102.669 70.4288 102.853H61.8141C62.0588 104.719 63.5574 105.963 65.6576 105.963C66.9014 105.963 67.9412 105.545 68.7262 104.678L69.7865 105.923C68.8282 107.044 67.3601 107.646 65.5964 107.646C62.1709 107.646 59.8873 105.382 59.8873 102.21C59.8873 99.0383 62.1506 96.7945 65.2192 96.7945C68.2879 96.7945 70.4696 98.9975 70.4696 102.271ZM68.6243 101.466C68.4306 99.6808 67.0849 98.4161 65.2192 98.4161C63.3535 98.4161 62.018 99.6604 61.8141 101.466H68.6243ZM90.584 102.21C90.584 105.382 88.2596 107.646 85.0686 107.646C81.8776 107.646 79.543 105.382 79.543 102.21C79.543 99.0383 81.8878 96.7945 85.0686 96.7945C88.2494 96.7945 90.584 99.0383 90.584 102.21ZM88.6368 102.21C88.6368 99.946 87.1177 98.4773 85.0686 98.4773C83.0194 98.4773 81.48 99.9358 81.48 102.21C81.48 104.485 83.0194 105.963 85.0686 105.963C87.1177 105.963 88.6368 104.485 88.6368 102.21ZM94.5192 95.9582V96.8965H92.7147V98.4773H94.5192V107.524H96.446V98.4773H99.4943V96.8965H96.4052V95.9786C96.4052 94.7547 96.9863 94.1122 98.1282 94.1122C98.6889 94.1122 99.2088 94.3162 99.6064 94.6119L100.188 93.1535C99.6472 92.7353 98.8418 92.5314 98.0262 92.5314C95.763 92.5314 94.5192 93.898 94.5192 95.9582ZM123.034 104.964L119.17 93.5002H117.325L113.38 104.913L109.587 93.5002H107.528L112.217 107.534H114.358L118.192 96.3254L122.025 107.534H124.125L128.815 93.5002H126.908L123.044 104.964H123.034ZM140.763 102.282C140.763 102.445 140.743 102.679 140.722 102.863H132.108C132.352 104.729 133.851 105.974 135.951 105.974C137.195 105.974 138.235 105.555 139.02 104.688L140.08 105.933C139.122 107.055 137.654 107.656 135.89 107.656C132.464 107.656 130.181 105.392 130.181 102.22C130.181 99.0485 132.444 96.8047 135.513 96.8047C138.581 96.8047 140.763 99.0077 140.763 102.282ZM138.918 101.476C138.714 99.691 137.378 98.4263 135.513 98.4263C133.647 98.4263 132.301 99.6706 132.108 101.476H138.928H138.918ZM155.423 102.22C155.423 105.464 153.16 107.656 150.051 107.656C148.491 107.656 147.125 107.055 146.258 105.851V107.534H144.413V92.6537H146.34V98.5079C147.216 97.3657 148.542 96.8047 150.051 96.8047C153.16 96.8047 155.423 98.9669 155.423 102.22ZM153.476 102.22C153.476 99.9562 151.937 98.4875 149.887 98.4875C147.838 98.4875 146.319 99.946 146.319 102.22C146.319 104.495 147.859 105.974 149.887 105.974C151.916 105.974 153.476 104.495 153.476 102.22ZM163.13 99.3952L166.801 94.8669V93.5002H157.544V95.2443H164.293L160.765 99.5788V100.986H161.887C164.293 100.986 165.353 101.945 165.353 103.434C165.353 104.923 164.15 105.923 162.05 105.923C160.327 105.923 158.767 105.3 157.819 104.423L156.901 106.004C158.084 107.065 160.052 107.707 162.05 107.707C165.618 107.707 167.361 105.78 167.361 103.414C167.361 101.251 165.934 99.6604 163.13 99.4054V99.3952ZM179.758 101.262H186.793V99.5584H179.758V95.2443H187.659V93.5002H177.76V107.534H187.945V105.79H179.768V101.262H179.758ZM199.852 92.6639H201.779V107.544H199.934V105.861C199.067 107.065 197.711 107.667 196.141 107.667C193.032 107.667 190.769 105.484 190.769 102.231C190.769 98.9771 193.032 96.8149 196.141 96.8149C197.64 96.8149 198.965 97.3759 199.852 98.5181V92.6639ZM199.873 102.231C199.873 99.9664 198.333 98.4977 196.305 98.4977C194.276 98.4977 192.716 99.9562 192.716 102.231C192.716 104.505 194.255 105.984 196.305 105.984C198.354 105.984 199.873 104.505 199.873 102.231ZM214.39 102.414C214.39 104.699 213.106 105.943 211.107 105.943C209.283 105.943 208.243 104.903 208.243 102.812V96.9169H206.316V103.036C206.316 106.167 208.141 107.667 210.883 107.667C212.382 107.667 213.707 107.044 214.492 105.943V107.544H216.317V96.9169H214.39V102.414ZM225.584 98.5079C226.746 98.5079 227.786 98.9873 228.469 100.028L229.927 99.0893C229.081 97.6104 227.501 96.8251 225.594 96.8251C222.332 96.8251 219.987 99.0689 219.987 102.241C219.987 105.413 222.332 107.677 225.594 107.677C227.501 107.677 229.081 106.871 229.927 105.392L228.469 104.474C227.786 105.515 226.746 105.994 225.584 105.994C223.504 105.994 221.934 104.546 221.934 102.241C221.934 99.9358 223.494 98.5079 225.584 98.5079ZM241.835 101.139V107.554H240.01V106.147C239.368 107.106 238.185 107.667 236.523 107.667C234.117 107.667 232.598 106.382 232.598 104.536C232.598 102.832 233.699 101.425 236.87 101.425H239.918V101.047C239.918 99.4258 238.98 98.4773 237.074 98.4773C235.81 98.4773 234.525 98.9159 233.709 99.6196L232.904 98.1714C234.005 97.2943 235.585 96.8047 237.298 96.8047C240.203 96.8047 241.845 98.2122 241.845 101.119L241.835 101.139ZM239.908 102.822H236.941C235.035 102.822 234.494 103.567 234.494 104.464C234.494 105.525 235.371 106.188 236.839 106.188C238.307 106.188 239.429 105.525 239.908 104.301V102.822ZM250.266 106.045C249.206 106.045 248.604 105.402 248.604 104.26V98.5079H251.652V96.9271H248.604V94.6017H246.677V96.9271H244.873V98.5079H246.677V104.342C246.677 106.484 247.901 107.667 250.042 107.667C250.898 107.667 251.785 107.422 252.366 106.922L251.764 105.535C251.367 105.851 250.827 106.035 250.266 106.035V106.045ZM256.658 92.3682C255.914 92.3682 255.353 92.9291 255.353 93.6328C255.353 94.3366 255.914 94.8771 256.658 94.8771C257.402 94.8771 257.963 94.3162 257.963 93.592C257.963 92.9087 257.402 92.3682 256.658 92.3682ZM255.689 107.544H257.616V96.9169H255.689V107.544ZM272.338 102.231C272.338 105.402 270.013 107.667 266.822 107.667C263.631 107.667 261.297 105.402 261.297 102.231C261.297 99.0587 263.641 96.8149 266.822 96.8149C270.003 96.8149 272.338 99.0587 272.338 102.231ZM270.39 102.231C270.39 99.9664 268.871 98.4977 266.822 98.4977C264.773 98.4977 263.234 99.9562 263.234 102.231C263.234 104.505 264.773 105.984 266.822 105.984C268.871 105.984 270.39 104.505 270.39 102.231ZM281.666 96.8149C279.984 96.8149 278.618 97.437 277.833 98.5181V96.9169H275.987V107.544H277.914V102.067C277.914 99.7624 279.24 98.5385 281.279 98.5385C283.103 98.5385 284.143 99.5584 284.143 101.649V107.544H286.07V101.425C286.07 98.2938 284.245 96.8149 281.656 96.8149H281.666Z" fill="white"/>
<path d="M183.796 55.7538C183.796 68.5127 173.428 78.885 160.674 78.885H112.249C108.303 78.885 105.112 75.6927 105.112 71.7458C105.112 67.7988 108.303 64.6065 112.249 64.6065H160.674C165.557 64.6065 169.523 60.6391 169.523 55.7538C169.523 50.8685 165.557 46.9011 160.674 46.9011C160.674 46.9011 144.046 46.9011 144.036 46.9011H126.185C113.441 46.9011 103.063 36.5288 103.063 23.7699C103.063 11.011 113.441 0.638672 126.195 0.638672H174.631C178.576 0.638672 181.767 3.83094 181.767 7.77794C181.767 11.7249 178.576 14.9172 174.631 14.9172H126.195C121.312 14.9172 117.346 18.8846 117.346 23.7699C117.346 28.6552 121.312 32.6226 126.195 32.6226H160.684C173.438 32.6226 183.806 42.9949 183.806 55.7538H183.796ZM286.071 23.9433C286.071 30.1442 283.471 35.7333 279.312 39.721C283.471 43.6986 286.071 49.2979 286.071 55.4988V55.8966C286.071 67.9619 276.253 77.7835 264.193 77.7835H217.959C217.327 77.7835 216.715 77.6917 216.144 77.5082C213.657 76.733 211.842 74.4077 211.842 71.6642V7.77794C211.842 4.40208 214.584 1.65857 217.959 1.65857C218.051 1.65857 218.132 1.65857 218.224 1.66877C218.316 1.66877 218.397 1.65857 218.489 1.65857H264.203C276.263 1.65857 286.081 11.4802 286.081 23.5455V23.9433H286.071ZM273.837 55.4988C273.837 50.175 269.514 45.8506 264.193 45.8506H261.338V45.8302H224.076V65.5448H264.193C269.514 65.5448 273.837 61.2204 273.837 55.8966V55.4988ZM273.837 23.5455C273.837 18.2217 269.514 13.8973 264.193 13.8973H224.076V33.5915H264.193C269.514 33.5915 273.837 29.2671 273.837 23.9433V23.5455ZM54.0871 42.2708L65.5563 39.7108C65.9131 39.6293 66.2801 39.5885 66.6369 39.5885C66.9937 39.5885 67.3607 39.6293 67.7176 39.7108L69.1856 40.0372L50.315 6.12571C49.0712 3.89214 46.7366 2.49488 44.1777 2.45408C41.6188 2.39289 39.2434 3.74935 37.9384 5.95232L1.36953 67.5744C-0.638856 70.9604 0.472383 75.346 3.86727 77.3552C7.25195 79.3644 11.6357 78.2527 13.6441 74.8564L43.882 23.9025L54.0871 42.2606V42.2708ZM78.8401 57.4162L67.7074 59.8946C67.3506 59.9762 66.9835 60.017 66.6267 60.017C66.2699 60.017 65.9029 59.9762 65.5461 59.8946L63.6498 59.4662L72.4072 75.2032C73.7121 77.549 76.1487 78.8748 78.6464 78.8748C79.8188 78.8748 81.0117 78.5892 82.1127 77.9773C85.5585 76.0599 86.7921 71.7151 84.8755 68.2679L78.8401 57.406V57.4162ZM66.6267 43.6782L66.433 43.6986L39.0497 49.8078L45.7375 51.2969V61.8222C44.8607 62.2097 44.249 63.1072 44.249 64.1475C44.249 65.0246 44.6874 65.7998 45.3399 66.2485C44.6772 66.6973 44.249 67.4724 44.249 68.3495C44.249 68.4515 44.249 68.5535 44.2694 68.6555V77.447H49.1528V68.3495C49.1528 67.4724 48.7144 66.6973 48.0619 66.2485C48.7246 65.7998 49.1528 65.0246 49.1528 64.1475C49.1528 63.1072 48.5411 62.2097 47.6643 61.8222V51.7252L66.4432 55.917L66.6369 55.9374L66.8306 55.917L94.214 49.8078L66.8306 43.6986L66.6369 43.6782H66.6267Z" fill="white"/>
</svg>
