<svg width="107" height="40" viewBox="0 0 107 40" fill="none" xmlns="http://www.w3.org/2000/svg">
<path d="M0.94104 34.4341H4.61223V35.0809H1.68586V36.8964H4.29464V37.5357H1.68586V39.6386H0.94104V34.4341ZM8.75603 37.7361C8.75603 38.5834 8.27964 39.0448 7.5386 39.0448C6.86183 39.0448 6.47618 38.659 6.47618 37.8836V35.6974H5.7616V37.9668C5.7616 39.128 6.43837 39.684 7.45542 39.684C8.0112 39.684 8.50271 39.4533 8.79384 39.0448V39.6386H9.4706V35.6974H8.75603V37.7361ZM12.6314 39.0826C12.2382 39.0826 12.0151 38.8444 12.0151 38.4207V36.2875H13.1456V35.7012H12.0151V34.8388H11.3005V35.7012H10.6313V36.2875H11.3005V38.451C11.3005 39.2453 11.7542 39.684 12.5482 39.684C12.8658 39.684 13.1947 39.5933 13.4102 39.4079L13.1872 38.8935C13.0397 39.0108 12.8393 39.0789 12.6314 39.0789V39.0826ZM17.6032 37.7361C17.6032 38.5834 17.1268 39.0448 16.3858 39.0448C15.709 39.0448 15.3233 38.659 15.3233 37.8836V35.6974H14.6088V37.9668C14.6088 39.128 15.2855 39.684 16.3026 39.684C16.8584 39.684 17.3499 39.4533 17.641 39.0448V39.6386H18.3178V35.6974H17.6032V37.7361ZM20.7299 36.3593V35.6974H20.0456V39.6386H20.7602V37.6756C20.7602 36.8132 21.2366 36.3442 22.0003 36.3442C22.0532 36.3442 22.1024 36.3442 22.1629 36.3518V35.6596C21.471 35.6596 20.9832 35.8979 20.7299 36.3593ZM26.9343 37.6907C26.9343 37.7513 26.9267 37.8382 26.9192 37.9063H23.7244C23.8151 38.5985 24.3709 39.0599 25.1497 39.0599C25.611 39.0599 25.9966 38.9049 26.2878 38.5834L26.681 39.0448C26.3256 39.4609 25.7811 39.684 25.127 39.684C23.8567 39.684 23.0098 38.8444 23.0098 37.668C23.0098 36.4917 23.8491 35.6596 24.9872 35.6596C26.1252 35.6596 26.9343 36.4766 26.9343 37.6907ZM26.2499 37.3919C26.1781 36.73 25.679 36.261 24.9872 36.261C24.2953 36.261 23.8 36.7225 23.7244 37.3919H26.2499ZM34.3939 37.668C34.3939 38.8444 33.5318 39.684 32.3484 39.684C31.165 39.684 30.2992 38.8444 30.2992 37.668C30.2992 36.4917 31.1688 35.6596 32.3484 35.6596C33.5281 35.6596 34.3939 36.4917 34.3939 37.668ZM33.6717 37.668C33.6717 36.8284 33.1084 36.2837 32.3484 36.2837C31.5885 36.2837 31.0176 36.8246 31.0176 37.668C31.0176 38.5115 31.5885 39.0599 32.3484 39.0599C33.1084 39.0599 33.6717 38.5115 33.6717 37.668ZM35.8533 35.3495V35.6974H35.1841V36.2837H35.8533V39.6386H36.5678V36.2837H37.6983V35.6974H36.5527V35.357C36.5527 34.9031 36.7682 34.6649 37.1917 34.6649C37.3996 34.6649 37.5925 34.7405 37.7399 34.8502L37.9554 34.3093C37.755 34.1542 37.4563 34.0786 37.1539 34.0786C36.3145 34.0786 35.8533 34.5854 35.8533 35.3495ZM46.4283 38.6893L44.9953 34.4379H44.311L42.8478 38.6704L41.4413 34.4379H40.6776L42.4168 39.6424H43.2108L44.6324 35.4856L46.054 39.6424H46.8328L48.572 34.4379H47.865L46.432 38.6893H46.4283ZM53.0031 37.6945C53.0031 37.755 52.9956 37.842 52.988 37.9101H49.7932C49.884 38.6023 50.4397 39.0637 51.2186 39.0637C51.6799 39.0637 52.0655 38.9087 52.3566 38.5872L52.7498 39.0486C52.3944 39.4647 51.85 39.6878 51.1959 39.6878C49.9255 39.6878 49.0786 38.8481 49.0786 37.6718C49.0786 36.4955 49.918 35.6634 51.056 35.6634C52.194 35.6634 53.0031 36.4804 53.0031 37.6945ZM52.3188 37.3957C52.2432 36.7338 51.7479 36.2648 51.056 36.2648C50.3641 36.2648 49.8651 36.7262 49.7932 37.3957H52.3226H52.3188ZM58.44 37.6718C58.44 38.8746 57.6006 39.6878 56.4475 39.6878C55.869 39.6878 55.3624 39.4647 55.041 39.0183V39.6424H54.3567V34.124H55.0713V36.295C55.3964 35.8714 55.8879 35.6634 56.4475 35.6634C57.6006 35.6634 58.44 36.4653 58.44 37.6718ZM57.7178 37.6718C57.7178 36.8321 57.1469 36.2875 56.387 36.2875C55.627 36.2875 55.0637 36.8284 55.0637 37.6718C55.0637 38.5153 55.6346 39.0637 56.387 39.0637C57.1394 39.0637 57.7178 38.5153 57.7178 37.6718ZM61.2983 36.6241L62.6594 34.9447V34.4379H59.2264V35.0847H61.7293L60.4211 36.6922V37.2142H60.837C61.7293 37.2142 62.1225 37.5697 62.1225 38.1219C62.1225 38.6742 61.6764 39.0448 60.8975 39.0448C60.2586 39.0448 59.6801 38.8141 59.3285 38.4888L58.9882 39.0751C59.4268 39.4684 60.1565 39.7067 60.8975 39.7067C62.2208 39.7067 62.8673 38.9919 62.8673 38.1144C62.8673 37.3125 62.338 36.7225 61.2983 36.6279V36.6241ZM67.4648 37.3163H70.0736V36.6846H67.4648V35.0847H70.395V34.4379H66.7238V39.6424H70.5009V38.9957H67.4686V37.3163H67.4648ZM74.9169 34.1278H75.6314V39.6462H74.9471V39.0221C74.6257 39.4684 74.1229 39.6916 73.5406 39.6916C72.3875 39.6916 71.5481 38.8822 71.5481 37.6756C71.5481 36.469 72.3875 35.6672 73.5406 35.6672C74.0964 35.6672 74.5879 35.8752 74.9169 36.2988V34.1278ZM74.9244 37.6756C74.9244 36.8359 74.3535 36.2913 73.6011 36.2913C72.8487 36.2913 72.2703 36.8321 72.2703 37.6756C72.2703 38.5191 72.8412 39.0675 73.6011 39.0675C74.3611 39.0675 74.9244 38.5191 74.9244 37.6756ZM80.3083 37.7437C80.3083 38.5909 79.832 39.0524 79.0909 39.0524C78.4141 39.0524 78.0285 38.6666 78.0285 37.8912V35.705H77.3139V37.9744C77.3139 39.1356 77.9907 39.6916 79.0077 39.6916C79.5635 39.6916 80.055 39.4609 80.3461 39.0524V39.6462H81.0229V35.705H80.3083V37.7437ZM84.4597 36.295C84.8907 36.295 85.2764 36.4728 85.5297 36.8586L86.0703 36.5106C85.7565 35.9622 85.1705 35.671 84.4635 35.671C83.2536 35.671 82.384 36.5031 82.384 37.6794C82.384 38.8557 83.2536 39.6954 84.4635 39.6954C85.1705 39.6954 85.7565 39.3966 86.0703 38.8481L85.5297 38.5077C85.2764 38.8935 84.8907 39.0713 84.4597 39.0713C83.6884 39.0713 83.1062 38.5342 83.1062 37.6794C83.1062 36.8246 83.6846 36.295 84.4597 36.295ZM90.4863 37.2709V39.65H89.8096V39.128C89.5714 39.4836 89.1328 39.6916 88.5165 39.6916C87.6243 39.6916 87.0609 39.215 87.0609 38.5304C87.0609 37.8988 87.4692 37.3768 88.6451 37.3768H89.7756V37.2369C89.7756 36.6355 89.4277 36.2837 88.7207 36.2837C88.2519 36.2837 87.7755 36.4463 87.473 36.7073L87.1743 36.1702C87.5827 35.8449 88.1687 35.6634 88.8039 35.6634C89.8814 35.6634 90.4901 36.1854 90.4901 37.2633L90.4863 37.2709ZM89.7718 37.895H88.6715C87.9645 37.895 87.7641 38.1711 87.7641 38.5039C87.7641 38.8973 88.0893 39.1432 88.6337 39.1432C89.1782 39.1432 89.5941 38.8973 89.7718 38.4434V37.895ZM93.6131 39.0902C93.2199 39.0902 92.9968 38.8519 92.9968 38.4283V36.295H94.1273V35.7088H92.9968V34.8464H92.2822V35.7088H91.613V36.295H92.2822V38.4586C92.2822 39.2529 92.7359 39.6916 93.5299 39.6916C93.8475 39.6916 94.1764 39.6008 94.3919 39.4155L94.1689 38.9011C94.0214 39.0183 93.821 39.0864 93.6131 39.0864V39.0902ZM95.9837 34.0181C95.7077 34.0181 95.4997 34.2261 95.4997 34.4871C95.4997 34.7481 95.7077 34.9485 95.9837 34.9485C96.2597 34.9485 96.4676 34.7405 96.4676 34.472C96.4676 34.2185 96.2597 34.0181 95.9837 34.0181ZM95.6245 39.6462H96.3391V35.705H95.6245V39.6462ZM101.799 37.6756C101.799 38.8519 100.937 39.6916 99.7532 39.6916C98.5698 39.6916 97.704 38.8519 97.704 37.6756C97.704 36.4993 98.5735 35.6672 99.7532 35.6672C100.933 35.6672 101.799 36.4993 101.799 37.6756ZM101.076 37.6756C101.076 36.8359 100.513 36.2913 99.7532 36.2913C98.9932 36.2913 98.4223 36.8321 98.4223 37.6756C98.4223 38.5191 98.9932 39.0675 99.7532 39.0675C100.513 39.0675 101.076 38.5191 101.076 37.6756ZM105.258 35.6672C104.634 35.6672 104.128 35.8979 103.836 36.2988V35.705H103.152V39.6462H103.867V37.6151C103.867 36.7603 104.358 36.3064 105.114 36.3064C105.791 36.3064 106.177 36.6846 106.177 37.46V39.6462H106.891V37.3768C106.891 36.2156 106.215 35.6672 105.254 35.6672H105.258Z" fill="white"/>
<path d="M68.9621 20.4399C68.9621 25.1716 65.117 29.0182 60.3872 29.0182H42.4282C40.965 29.0182 39.7816 27.8344 39.7816 26.3706C39.7816 24.9068 40.965 23.7229 42.4282 23.7229H60.3872C62.1982 23.7229 63.6689 22.2516 63.6689 20.4399C63.6689 18.6281 62.1982 17.1568 60.3872 17.1568C60.3872 17.1568 54.2206 17.1568 54.2169 17.1568H47.5966C42.8706 17.1568 39.0217 13.3101 39.0217 8.57839C39.0217 3.84666 42.8706 0 47.6004 0H65.5631C67.0263 0 68.2097 1.18388 68.2097 2.64765C68.2097 4.11142 67.0263 5.2953 65.5631 5.2953H47.6004C45.7894 5.2953 44.3186 6.76664 44.3186 8.57839C44.3186 10.3901 45.7894 11.8615 47.6004 11.8615H60.391C65.1208 11.8615 68.9659 15.7081 68.9659 20.4399H68.9621ZM106.891 8.64269C106.891 10.9424 105.927 13.0151 104.385 14.494C105.927 15.9691 106.891 18.0456 106.891 20.3453V20.4928C106.891 24.9673 103.251 28.6098 98.7778 28.6098H81.6317C81.3973 28.6098 81.1704 28.5757 80.9587 28.5076C80.0362 28.2202 79.3632 27.3578 79.3632 26.3403V2.64765C79.3632 1.39569 80.3802 0.378236 81.6317 0.378236C81.6657 0.378236 81.696 0.378236 81.73 0.382018C81.764 0.382018 81.7943 0.378236 81.8283 0.378236H98.7816C103.254 0.378236 106.895 4.02065 106.895 8.49518V8.64269H106.891ZM102.354 20.3453C102.354 18.3709 100.751 16.7672 98.7778 16.7672H97.7191V16.7596H83.9002V24.0709H98.7778C100.751 24.0709 102.354 22.4672 102.354 20.4928V20.3453ZM102.354 8.49518C102.354 6.52078 100.751 4.91707 98.7778 4.91707H83.9002V12.2208H98.7778C100.751 12.2208 102.354 10.6171 102.354 8.64269V8.49518ZM20.8585 15.4396L25.112 14.4902C25.2443 14.46 25.3804 14.4448 25.5127 14.4448C25.6451 14.4448 25.7812 14.46 25.9135 14.4902L26.458 14.6112L19.4596 2.03491C18.9984 1.20657 18.1326 0.688389 17.1836 0.67326C16.2346 0.650566 15.3536 1.15362 14.8697 1.97061L1.30784 24.8236C0.563016 26.0794 0.975128 27.7058 2.23415 28.4509C3.48938 29.196 5.11514 28.7837 5.85997 27.5242L17.0739 8.62756L20.8585 15.4358V15.4396ZM30.0384 21.0564L25.9097 21.9755C25.7774 22.0058 25.6413 22.0209 25.509 22.0209C25.3766 22.0209 25.2405 22.0058 25.1082 21.9755L24.405 21.8166L27.6527 27.6528C28.1367 28.5228 29.0403 29.0145 29.9666 29.0145C30.4014 29.0145 30.8437 28.9086 31.2521 28.6816C32.53 27.9705 32.9875 26.3593 32.2767 25.0808L30.0384 21.0526V21.0564ZM25.509 15.9616L25.4371 15.9691L15.2818 18.2347L17.762 18.787V22.6904C17.4369 22.8341 17.21 23.1669 17.21 23.5527C17.21 23.878 17.3726 24.1655 17.6146 24.3319C17.3688 24.4983 17.21 24.7858 17.21 25.1111C17.21 25.1489 17.21 25.1867 17.2176 25.2245V28.4849H19.0286V25.1111C19.0286 24.7858 18.866 24.4983 18.6241 24.3319C18.8698 24.1655 19.0286 23.878 19.0286 23.5527C19.0286 23.1669 18.8018 22.8341 18.4766 22.6904V18.9458L25.4409 20.5004L25.5127 20.5079L25.5846 20.5004L35.7399 18.2347L25.5846 15.9691L25.5127 15.9616H25.509Z" fill="white"/>
</svg>
