<svg width="114" height="103" viewBox="0 0 114 103" fill="none" xmlns="http://www.w3.org/2000/svg">
<path d="M74.0701 26.0254H39.6107C33.0155 26.0254 26.6903 28.6959 22.0267 33.4493C17.3631 38.2027 14.7432 44.6498 14.7432 51.3722V77.407C14.7432 80.7356 15.3864 84.0316 16.6361 87.1068C17.8858 90.182 19.7175 92.9762 22.0267 95.3299C24.3359 97.6835 27.0773 99.5506 30.0943 100.824C33.1114 102.098 36.3451 102.754 39.6107 102.754H74.0701C77.3358 102.754 80.5695 102.098 83.5865 100.824C86.6036 99.5506 89.345 97.6835 91.6542 95.3299C93.9633 92.9762 95.7951 90.182 97.0448 87.1068C98.2945 84.0316 98.9377 80.7356 98.9377 77.407V51.3722C98.9377 44.6498 96.3177 38.2027 91.6542 33.4493C86.9906 28.6959 80.6654 26.0254 74.0701 26.0254ZM89.7545 71.1065C89.7405 76.3602 87.6904 81.3954 84.0506 85.1154C80.4109 88.8355 75.4765 90.9389 70.3222 90.9675H43.3764C38.2097 90.9676 33.2534 88.8818 29.5917 85.1665C25.93 81.4512 23.8611 76.4089 23.8376 71.1427V57.6546C23.8658 52.3915 25.9367 47.3539 29.5979 43.6425C33.2591 39.9311 38.2128 37.8478 43.3764 37.8479H70.3222C75.4673 37.8764 80.3938 39.9723 84.032 43.6806C87.6702 47.389 89.7265 52.4103 89.7545 57.6546V71.1065Z" fill="white"/>
<path d="M70.3222 41.6133H43.3764C39.2023 41.6181 35.2003 43.309 32.2471 46.3157C29.2939 49.3224 27.6304 53.3997 27.621 57.6542V71.1423C27.6257 75.3999 29.2871 79.4818 32.2408 82.4924C35.1945 85.5031 39.1992 87.1965 43.3764 87.2013H70.3222C74.4977 87.1965 78.5006 85.5025 81.4514 82.4913C84.4023 79.4802 86.0598 75.3983 86.0598 71.1423V57.6542C86.0551 53.4013 84.3955 49.3241 81.4452 46.3168C78.4948 43.3096 74.4946 41.6181 70.3222 41.6133ZM40.8541 64.5159C39.5128 64.5159 38.2017 64.1108 37.0862 63.3516C35.9708 62.5925 35.1011 61.5134 34.587 60.2507C34.0729 58.988 33.9375 57.5983 34.1979 56.2573C34.4583 54.9162 35.1027 53.6838 36.0499 52.7159C36.9971 51.7479 38.2044 51.0878 39.5195 50.8189C40.8345 50.55 42.1983 50.6844 43.4384 51.2051C44.6786 51.7258 45.7395 52.6094 46.4872 53.7444C47.2349 54.8793 47.6359 56.2147 47.6394 57.5818C47.6394 59.4177 46.9251 61.1787 45.6531 62.4786C44.3811 63.7785 42.6553 64.5111 40.8541 64.5159ZM67.5867 73.5684C64.8312 76.4195 61.0861 78.0517 57.1601 78.1127C53.0854 78.0018 49.1871 76.3944 46.1828 73.5865C45.8225 73.2431 45.6106 72.768 45.594 72.2655C45.5773 71.7629 45.7572 71.2743 46.094 70.9069C46.4309 70.5396 46.8971 70.3237 47.3901 70.3067C47.8831 70.2898 48.3625 70.4731 48.7229 70.8164C49.0604 71.1604 57.0535 78.5653 65.1 70.8164C65.2784 70.6559 65.4861 70.5328 65.7112 70.4542C65.9364 70.3755 66.1745 70.3428 66.412 70.3579C66.6495 70.3731 66.8818 70.4357 67.0955 70.5424C67.3093 70.649 67.5003 70.7975 67.6578 70.9794C67.8152 71.1612 67.936 71.373 68.0132 71.6024C68.0904 71.8319 68.1224 72.0746 68.1076 72.3167C68.0927 72.5587 68.0313 72.7955 67.9267 73.0134C67.822 73.2312 67.6764 73.426 67.4979 73.5865L67.5867 73.5684ZM72.9155 64.5159C71.5742 64.5159 70.2631 64.1108 69.1476 63.3516C68.0322 62.5925 67.1625 61.5134 66.6484 60.2507C66.1343 58.988 65.9989 57.5983 66.2593 56.2573C66.5197 54.9162 67.1642 53.6838 68.1113 52.7159C69.0585 51.7479 70.2659 51.0878 71.5809 50.8189C72.8959 50.55 74.2597 50.6844 75.4998 51.2051C76.74 51.7258 77.8009 52.6094 78.5486 53.7444C79.2964 54.8793 79.6973 56.2147 79.7008 57.5818C79.7008 58.4985 79.5226 59.4061 79.1762 60.2522C78.8299 61.0982 78.3224 61.8659 77.6832 62.5107C77.0439 63.1556 76.2855 63.6648 75.4519 64.009C74.6183 64.3532 73.726 64.5255 72.8267 64.5159H72.9155Z" fill="white"/>
<path d="M40.8539 54.4498C40.2419 54.4498 39.6436 54.635 39.135 54.982C38.6263 55.3289 38.2302 55.822 37.9968 56.3987C37.7634 56.9754 37.7033 57.6097 37.824 58.2213C37.9447 58.8329 38.2408 59.3942 38.6748 59.834C39.1088 60.2738 39.6612 60.5724 40.2619 60.6919C40.8626 60.8114 41.4846 60.7465 42.049 60.5053C42.6134 60.264 43.0949 59.8574 43.4324 59.337C43.7698 58.8166 43.9481 58.2057 43.9446 57.5819C43.9446 57.1691 43.8645 56.7603 43.709 56.3791C43.5534 55.9979 43.3255 55.6518 43.0383 55.3607C42.751 55.0697 42.4102 54.8393 42.0353 54.683C41.6604 54.5267 41.2589 54.4474 40.8539 54.4498ZM72.8265 54.4498C72.2145 54.4498 71.6162 54.635 71.1076 54.982C70.5989 55.3289 70.2028 55.822 69.9694 56.3987C69.736 56.9754 69.6759 57.6097 69.7966 58.2213C69.9173 58.8329 70.2134 59.3942 70.6474 59.834C71.0814 60.2738 71.6338 60.5724 72.2345 60.6919C72.8352 60.8114 73.4572 60.7465 74.0216 60.5053C74.586 60.264 75.0675 59.8574 75.405 59.337C75.7424 58.8166 75.9207 58.2057 75.9172 57.5819C75.9172 57.1691 75.8371 56.7603 75.6816 56.3791C75.526 55.9979 75.2981 55.6518 75.0109 55.3607C74.7236 55.0697 74.3828 54.8393 74.0079 54.683C73.633 54.5267 73.2315 54.4474 72.8265 54.4498ZM103.467 49.0364V79.7604C109.364 78.2577 113.68 71.9029 113.68 64.4075C113.68 56.9121 109.364 50.5391 103.467 49.0364ZM10.2135 49.0364C4.3163 50.5391 0 56.9121 0 64.4075C0 71.9029 4.3163 78.2577 10.2135 79.7604V51.372C10.1247 50.6116 10.1602 49.8149 10.2135 49.0364ZM54.6199 12.5551V22.6577H59.0605V12.5551C60.4575 12.0246 61.6273 11.0105 62.3653 9.69022C63.1034 8.3699 63.3628 6.82724 63.0983 5.33175C62.8339 3.83626 62.0623 2.48303 60.9184 1.50847C59.7745 0.533918 58.3311 0 56.8402 0C55.3493 0 53.9059 0.533918 52.762 1.50847C51.6181 2.48303 50.8465 3.83626 50.5821 5.33175C50.3176 6.82724 50.577 8.3699 51.3151 9.69022C52.0531 11.0105 53.2228 12.0246 54.6199 12.5551Z" fill="white"/>
</svg>
