<svg width="107" height="104" viewBox="0 0 107 104" fill="none" xmlns="http://www.w3.org/2000/svg">
<path d="M53.0113 0C23.7225 0 0 23.7745 0 53.0963C0 76.56 15.1877 96.4576 36.2465 103.473C38.897 103.973 39.8689 102.329 39.8689 100.92C39.8689 99.6591 39.8247 96.3181 39.8026 91.8919C25.0567 95.0933 21.9467 84.7685 21.9467 84.7685C19.5347 78.6403 16.0492 77.0013 16.0492 77.0013C11.2472 73.7098 16.4202 73.7774 16.4202 73.7774C21.7435 74.1466 24.5398 79.2482 24.5398 79.2482C29.2666 87.3666 36.9489 85.0207 39.9793 83.6654C40.4564 80.2298 41.8215 77.8929 43.3367 76.5645C31.5638 75.2362 19.1901 70.6705 19.1901 50.3271C19.1901 44.5321 21.2443 39.7952 24.6458 36.0804C24.0495 34.7386 22.2603 29.3398 25.1097 22.0274C25.1097 22.0274 29.5494 20.6045 39.6878 27.4712C43.9287 26.2915 48.4346 25.7061 52.9406 25.6791C57.4466 25.7061 61.9525 26.2915 66.1934 27.4712C76.2656 20.6045 80.7053 22.0274 80.7053 22.0274C83.5546 29.3398 81.7655 34.7386 81.2354 36.0804C84.6148 39.7952 86.669 44.5321 86.669 50.3271C86.669 70.7245 74.2776 75.2137 62.4826 76.5195C64.338 78.1135 66.0609 81.369 66.0609 86.3445C66.0609 93.4498 65.9946 99.1593 65.9946 100.884C65.9946 102.275 66.9223 103.937 69.6392 103.405C90.8481 96.4351 106.023 76.524 106.023 53.0963C106.023 23.7745 82.2868 0 53.0113 0Z" fill="white"/>
</svg>
