<svg width="117" height="85" viewBox="0 0 117 85" fill="none" xmlns="http://www.w3.org/2000/svg">
<path d="M116.735 62.2533C116.484 51.3115 113.177 36.7072 107.886 23.1855C105.469 16.989 102.846 11.6678 100.315 7.82092C96.9396 2.66101 93.9064 0.265342 90.7136 0.265342C88.912 0.265342 87.2928 0.196237 85.742 0.127131C81.8194 -0.0341162 78.4213 -0.172328 75.4794 1.04854C72.4462 2.31548 70.6902 4.68812 69.6183 7.06075H47.1318C46.06 4.66508 44.3039 2.29245 41.2708 1.02551C38.306 -0.195363 34.9308 -0.0571511 31.0082 0.104096C29.4346 0.173202 27.8154 0.242307 26.0365 0.242307C22.8437 0.242307 19.8105 2.63798 16.4353 7.79788C13.9039 11.6678 11.304 16.989 8.86378 23.1855C3.57285 36.6841 0.266013 51.2885 0.01515 62.2533C-0.418159 81.4647 8.5445 84.7357 13.9267 84.9891H14.4056C19.7877 84.9891 25.6944 80.8197 32.4221 72.2967C35.5921 68.2885 38.1464 64.2804 39.5375 62.0229H77.2126C78.581 64.2804 81.158 68.2655 84.328 72.2967C91.2838 81.0731 97.3273 85.2425 102.823 84.9891C108.206 84.7588 117.168 81.4647 116.735 62.2533ZM81.6597 36.5229C81.6597 38.55 80.0177 40.2085 78.0108 40.2085H77.1214C75.1145 40.2085 73.4725 38.55 73.4725 36.5229C73.4725 34.4958 75.1145 32.8372 77.1214 32.8372H78.0108C80.0177 32.8603 81.6597 34.4727 81.6597 36.5229ZM43.2777 36.5229C43.2777 38.55 41.6356 40.2085 39.6287 40.2085H35.022V44.8617C35.022 46.8888 33.38 48.5473 31.3731 48.5473C29.3662 48.5473 27.7241 46.8888 27.7241 44.8617V40.2085H23.1174C21.1105 40.2085 19.4685 38.55 19.4685 36.5229C19.4685 34.4958 21.1105 32.8372 23.1174 32.8372H27.7241V28.1841C27.7241 26.157 29.3662 24.4985 31.3731 24.4985C33.38 24.4985 35.022 26.157 35.022 28.1841V32.8372H39.6287C41.6585 32.8603 43.2777 34.4727 43.2777 36.5229ZM89.026 28.1611V29.0825C89.026 31.1096 87.384 32.7681 85.3771 32.7681C83.3702 32.7681 81.7282 31.1096 81.7282 29.0825V28.1611C81.7282 26.134 83.3702 24.4754 85.3771 24.4754C87.384 24.4754 89.026 26.134 89.026 28.1611ZM89.026 43.9863V44.8847C89.026 46.9118 87.384 48.5703 85.3771 48.5703C83.3702 48.5703 81.7282 46.9118 81.7282 44.8847V43.9863C81.7282 41.9592 83.3702 40.3007 85.3771 40.3007C87.384 40.2776 89.026 41.9362 89.026 43.9863ZM97.2817 36.5229C97.2817 38.55 95.6397 40.2085 93.6328 40.2085H92.7205C90.7136 40.2085 89.0716 38.55 89.0716 36.5229C89.0716 34.4958 90.7136 32.8372 92.7205 32.8372H93.6328C95.6625 32.8603 97.2817 34.4727 97.2817 36.5229ZM66.6764 14.409C64.4186 18.0716 61.1346 19.4537 58.3751 19.4537C55.6156 19.4537 52.3315 18.0486 50.0738 14.409H66.6764Z" fill="white"/>
</svg>
