<svg width="101" height="95" viewBox="0 0 101 95" fill="none" xmlns="http://www.w3.org/2000/svg">
<path d="M63.306 0H37.1068C36.0571 0 35.0874 0.601117 34.5627 1.57856C34.0379 2.55601 34.0377 3.75824 34.5627 4.73569L62.5717 56.8283H95.61L65.8473 1.57541C65.5892 1.09655 65.2186 0.698969 64.7726 0.422483C64.3266 0.145997 63.8209 0.000306881 63.306 0ZM30.1614 9.46022L0.396149 64.7179C0.144159 65.1849 0.00787346 65.7136 0.000331046 66.2534C-0.00721137 66.7932 0.114242 67.326 0.35307 67.801L13.0425 93.058C13.2907 93.5521 13.6571 93.9661 14.1039 94.2571C14.5506 94.5482 15.0616 94.7057 15.584 94.7136H15.627C16.1427 94.7134 16.6492 94.5674 17.0957 94.2904C17.5423 94.0133 17.9132 93.6148 18.1712 93.135L46.6604 40.1464L30.1614 9.46022ZM99.8397 64.6811C99.5793 64.2119 99.2101 63.8235 98.7682 63.5538C98.3262 63.2841 97.8267 63.1424 97.3184 63.1425H41.2365L24.264 94.7138H84.6292C85.1587 94.7138 85.6785 94.5599 86.1334 94.2685C86.5883 93.977 86.9615 93.5589 87.2135 93.0582L99.9029 67.8012C100.144 67.3196 100.265 66.779 100.254 66.2322C100.243 65.6853 100.1 65.1509 99.8397 64.6811Z" fill="white"/>
</svg>
