<svg width="21" height="21" viewBox="0 0 21 21" fill="none" xmlns="http://www.w3.org/2000/svg">
<path opacity="0.63" fill-rule="evenodd" clip-rule="evenodd" d="M10.4963 20.9208C16.1389 20.9208 20.7132 16.3465 20.7132 10.7038C20.7132 5.06117 16.1389 0.486877 10.4963 0.486877C4.85359 0.486877 0.279297 5.06117 0.279297 10.7038C0.279297 16.3465 4.85359 20.9208 10.4963 20.9208ZM8.84509 7.24654C8.34634 6.7478 7.53771 6.7478 7.03896 7.24654C6.54022 7.74529 6.54022 8.55392 7.03896 9.05267L8.69014 10.7038L7.03896 12.355C6.54022 12.8538 6.54022 13.6624 7.03896 14.1612C7.53771 14.6599 8.34634 14.6599 8.84509 14.1612L10.4963 12.51L12.1474 14.1612C12.6462 14.6599 13.4548 14.6599 13.9536 14.1612C14.4523 13.6624 14.4523 12.8538 13.9536 12.355L12.3024 10.7038L13.9536 9.05267C14.4523 8.55392 14.4523 7.74529 13.9536 7.24654C13.4548 6.7478 12.6462 6.7478 12.1474 7.24654L10.4963 8.89773L8.84509 7.24654Z" fill="#FE0F03"/>
</svg>
