<svg width="48" height="48" viewBox="0 0 48 48" fill="none" xmlns="http://www.w3.org/2000/svg">
<path d="M34.5391 34.5C42.3925 32.5731 47.7838 28.5949 47.7838 24C47.7838 19.4051 42.3925 15.4269 34.5391 13.5C35.347 16.6594 35.8017 20.2257 35.8017 24C35.8017 27.7743 35.347 31.3406 34.5391 34.5Z" fill="#404040"/>
<path d="M13.9362 34.5C6.08269 32.5731 0.691406 28.5949 0.691406 24C0.691406 19.4051 6.08269 15.4269 13.9362 13.5C13.1282 16.6594 12.6735 20.2257 12.6735 24C12.6735 27.7743 13.1282 31.3406 13.9362 34.5Z" fill="#404040"/>
<path d="M13.9365 34.5C15.827 42.5048 19.73 48 24.238 48C28.746 48 32.649 42.5048 34.5395 34.5C31.4398 35.3235 27.941 35.787 24.238 35.787C20.5351 35.787 17.0362 35.3235 13.9365 34.5Z" fill="#FFA901"/>
<path d="M13.9365 13.5C15.827 5.49518 19.73 -2.08999e-07 24.238 0C28.746 2.08999e-07 32.649 5.49518 34.5395 13.5C31.4398 12.6765 27.941 12.213 24.238 12.213C20.5351 12.213 17.0362 12.6765 13.9365 13.5Z" fill="#FFA901"/>
</svg>
