<svg width="37" height="37" viewBox="0 0 37 37" fill="none" xmlns="http://www.w3.org/2000/svg">
<path d="M21.7051 5.4044C25.4222 1.92847 30.2831 0 35.3273 0H36.2997V0.991307C36.2997 6.13289 34.4077 11.0875 30.9976 14.8761L15.5071 32.0856L4.82129 21.1936L21.7051 5.4044Z" fill="#101010"/>
<path d="M24.0458 8.35812C25.6677 6.84145 27.7887 6 29.9897 6H30.414V6.43254C30.414 8.67598 29.5884 10.8378 28.1005 12.4909L21.3414 20L16.6787 15.2475L24.0458 8.35812Z" fill="black"/>
<path fill-rule="evenodd" clip-rule="evenodd" d="M8.59605 28.015C9.25828 28.6846 9.25828 29.7704 8.59605 30.4401L2.94362 36.1561C2.2814 36.8258 1.20772 36.8258 0.545496 36.1561C-0.116728 35.4865 -0.116728 34.4007 0.545496 33.731L6.19793 28.015C6.86015 27.3453 7.93383 27.3453 8.59605 28.015Z" fill="#101010"/>
<path fill-rule="evenodd" clip-rule="evenodd" d="M13.1181 32.588C13.7803 33.2576 13.7803 34.3434 13.1181 35.0131L11.9876 36.1563C11.3253 36.826 10.2517 36.826 9.58944 36.1563C8.92722 35.4866 8.92722 34.4008 9.58944 33.7312L10.7199 32.588C11.3822 31.9183 12.4558 31.9183 13.1181 32.588Z" fill="#101010"/>
<path fill-rule="evenodd" clip-rule="evenodd" d="M4.07411 23.442C4.73633 24.1116 4.73633 25.1974 4.07411 25.8671L2.94362 27.0103C2.2814 27.68 1.20772 27.68 0.545496 27.0103C-0.116728 26.3406 -0.116728 25.2548 0.545496 24.5852L1.67598 23.442C2.33821 22.7723 3.41188 22.7723 4.07411 23.442Z" fill="#101010"/>
<path d="M20.3691 37.0001L23.0609 23.7007L15.4512 32.0268L20.3691 37.0001Z" fill="#101010"/>
<path d="M4.91794 21.2772L13.2854 13.3042L0 15.6822L4.91794 21.2772Z" fill="#101010"/>
</svg>
