<svg width="27" height="26" viewBox="0 0 27 26" fill="none" xmlns="http://www.w3.org/2000/svg">
<path d="M11.369 20.6629C11.2802 20.6558 11.1948 20.6244 11.1212 20.5717C11.0477 20.519 10.9886 20.4469 10.9498 20.3625C9.48796 17.1828 5.46664 10.3407 5.42623 10.272C5.36163 10.1622 5.33675 10.0313 5.35614 9.9032C5.37554 9.77513 5.43791 9.65845 5.53186 9.5745L7.02993 8.23558C7.12142 8.15382 7.237 8.10833 7.35656 8.10704C7.47612 8.10574 7.5921 8.14872 7.68433 8.22849L11.9281 11.898C15.2458 8.06195 18.2539 5.46821 20.2184 3.95266C22.4301 2.24675 23.8115 1.50919 23.8693 1.47889C23.9523 1.43496 24.0449 1.41561 24.1373 1.4229L26.3829 1.60012C26.4862 1.60826 26.5845 1.64937 26.6649 1.71799C26.7452 1.78662 26.8038 1.87951 26.8328 1.98436C26.8618 2.08921 26.8599 2.20107 26.8273 2.3051C26.7947 2.40913 26.733 2.50042 26.6503 2.56686C19.8177 8.06147 11.9115 20.303 11.8324 20.426C11.782 20.5045 11.7129 20.5678 11.6321 20.6094C11.5514 20.651 11.4618 20.6695 11.3723 20.6631L11.369 20.6629Z" fill="white"/>
<path d="M11.7165 25.0416C5.61641 25.0416 0.653564 19.9832 0.653564 13.7654C0.653564 7.54769 5.61641 2.48926 11.7165 2.48926C12.9397 2.48788 14.1545 2.69366 15.3114 3.09818C15.4656 3.15217 15.5924 3.26638 15.664 3.41568C15.7355 3.56498 15.746 3.73713 15.693 3.89427C15.64 4.05141 15.528 4.18067 15.3815 4.2536C15.235 4.32654 15.0661 4.33717 14.9119 4.28318C13.8834 3.92366 12.8033 3.74083 11.716 3.74217C6.29359 3.74217 1.88223 8.2386 1.88223 13.7654C1.88223 19.2922 6.29359 23.7887 11.716 23.7887C17.1384 23.7887 21.5497 19.2922 21.5497 13.7654C21.5499 13.0873 21.4831 12.4108 21.3502 11.7463C21.3341 11.6657 21.3336 11.5826 21.349 11.5018C21.3643 11.421 21.3951 11.3441 21.4396 11.2754C21.4841 11.2068 21.5414 11.1477 21.6083 11.1017C21.6752 11.0556 21.7504 11.0234 21.8295 11.0069C21.9086 10.9905 21.9901 10.99 22.0693 11.0057C22.1486 11.0213 22.2241 11.0527 22.2914 11.098C22.3588 11.1434 22.4167 11.2018 22.4619 11.27C22.5071 11.3382 22.5387 11.4148 22.5549 11.4954C22.7042 12.2425 22.7794 13.003 22.7792 13.7654C22.7795 19.9832 17.8166 25.0416 11.7165 25.0416Z" fill="white"/>
</svg>
