<svg width="37" height="37" viewBox="0 0 37 37" fill="none" xmlns="http://www.w3.org/2000/svg">
<path d="M32.9531 0H31.7969C29.5618 0 27.75 1.81185 27.75 4.04688V32.9531C27.75 35.1882 29.5618 37 31.7969 37H32.9531C35.1882 37 37 35.1882 37 32.9531V4.04688C37 1.81185 35.1882 0 32.9531 0Z" fill="#101010"/>
<path d="M19.0781 16.1875H17.9219C15.6868 16.1875 13.875 17.9993 13.875 20.2344V32.9531C13.875 35.1882 15.6868 37 17.9219 37H19.0781C21.3132 37 23.125 35.1882 23.125 32.9531V20.2344C23.125 17.9993 21.3132 16.1875 19.0781 16.1875Z" fill="#101010"/>
<path d="M5.20312 23.125H4.04688C1.81185 23.125 0 24.9368 0 27.1719V32.9531C0 35.1882 1.81185 37 4.04688 37H5.20312C7.43815 37 9.25 35.1882 9.25 32.9531V27.1719C9.25 24.9368 7.43815 23.125 5.20312 23.125Z" fill="#101010"/>
<path d="M16.7651 0H8.67133C8.2132 0.00598929 7.77553 0.190641 7.45156 0.51461C7.12759 0.838579 6.94294 1.27625 6.93695 1.73438C6.94294 2.1925 7.12759 2.63017 7.45156 2.95414C7.77553 3.27811 8.2132 3.46276 8.67133 3.46875C10.1135 3.46875 10.8358 5.21243 9.81599 6.23221L0.5082 15.54C0.183409 15.8652 0.000976563 16.306 0.000976562 16.7656C0.000976563 17.2252 0.183409 17.6661 0.5082 17.9913C0.833396 18.316 1.27421 18.4985 1.73383 18.4985C2.19344 18.4985 2.63425 18.316 2.95945 17.9913L12.2672 8.68346C13.287 7.66368 15.0307 8.38593 15.0307 9.82812C15.0307 10.2881 15.2134 10.7293 15.5387 11.0545C15.8639 11.3798 16.3051 11.5625 16.7651 11.5625C17.2251 11.5625 17.6662 11.3798 17.9915 11.0545C18.3167 10.7293 18.4995 10.2881 18.4995 9.82812V1.73438C18.4935 1.27625 18.3088 0.838579 17.9848 0.51461C17.6609 0.190641 17.2232 0.00598929 16.7651 0Z" fill="#101010"/>
</svg>
