<svg width="40" height="38" viewBox="0 0 40 38" fill="none" xmlns="http://www.w3.org/2000/svg">
<path d="M28.351 27.5902H2.59961V1.83936H28.351V27.5902Z" fill="#101010"/>
<path fill-rule="evenodd" clip-rule="evenodd" d="M0.759766 1.83935C0.759766 0.823505 1.58327 0 2.59912 0H28.3505C29.3663 0 30.1899 0.823505 30.1899 1.83935V27.5902C30.1899 28.6061 29.3663 29.4296 28.3505 29.4296H2.59912C1.58327 29.4296 0.759766 28.6061 0.759766 27.5902V1.83935ZM4.43847 3.6787V25.7509H26.5112V3.6787H4.43847Z" fill="#101010"/>
<path d="M13.6354 33.1085C13.6354 35.4788 11.7139 37.4003 9.34357 37.4003C6.97327 37.4003 5.05176 35.4788 5.05176 33.1085C5.05176 30.7382 6.97327 28.8167 9.34357 28.8167C11.7139 28.8167 13.6354 30.7382 13.6354 33.1085Z" fill="#101010"/>
<path d="M35.7077 33.1085C35.7077 35.4788 33.7861 37.4003 31.4158 37.4003C29.0455 37.4003 27.124 35.4788 27.124 33.1085C27.124 30.7382 29.0455 28.8167 31.4158 28.8167C33.7861 28.8167 35.7077 30.7382 35.7077 33.1085Z" fill="#101010"/>
<path fill-rule="evenodd" clip-rule="evenodd" d="M26.5107 11.6494C26.5107 10.6336 27.3342 9.81006 28.3501 9.81006H30.803C35.8824 9.81006 39.9998 13.9275 39.9998 19.0068V27.5904C39.9998 28.6063 39.1763 29.4298 38.1604 29.4298H28.3501C27.3342 29.4298 26.5107 28.6063 26.5107 27.5904V11.6494ZM30.1894 13.4888V25.7511H36.3211V19.0068C36.3211 15.9592 33.8507 13.4888 30.803 13.4888H30.1894Z" fill="#101010"/>
</svg>
