<svg width="40" height="38" viewBox="0 0 40 38" fill="none" xmlns="http://www.w3.org/2000/svg">
<path d="M27.5907 27.5902H1.83936V1.83936H27.5907V27.5902Z" fill="#FAB634"/>
<path fill-rule="evenodd" clip-rule="evenodd" d="M0 1.83935C0 0.823505 0.823505 0 1.83935 0H27.5907C28.6066 0 29.4301 0.823505 29.4301 1.83935V27.5902C29.4301 28.6061 28.6066 29.4296 27.5907 29.4296H1.83935C0.823505 29.4296 0 28.6061 0 27.5902V1.83935ZM3.6787 3.6787V25.7509H25.7514V3.6787H3.6787Z" fill="#FAB634"/>
<path d="M12.876 33.1085C12.876 35.4788 10.9545 37.4003 8.58417 37.4003C6.21387 37.4003 4.29236 35.4788 4.29236 33.1085C4.29236 30.7382 6.21387 28.8167 8.58417 28.8167C10.9545 28.8167 12.876 30.7382 12.876 33.1085Z" fill="#FAB634"/>
<path d="M34.9483 33.1085C34.9483 35.4788 33.0267 37.4003 30.6564 37.4003C28.2861 37.4003 26.3646 35.4788 26.3646 33.1085C26.3646 30.7382 28.2861 28.8167 30.6564 28.8167C33.0267 28.8167 34.9483 30.7382 34.9483 33.1085Z" fill="#FAB634"/>
<path fill-rule="evenodd" clip-rule="evenodd" d="M25.7511 11.6494C25.7511 10.6336 26.5746 9.81006 27.5904 9.81006H30.0434C35.1227 9.81006 39.2402 13.9275 39.2402 19.0068V27.5904C39.2402 28.6063 38.4166 29.4298 37.4008 29.4298H27.5904C26.5746 29.4298 25.7511 28.6063 25.7511 27.5904V11.6494ZM29.4298 13.4888V25.7511H35.5615V19.0068C35.5615 15.9592 33.0911 13.4888 30.0434 13.4888H29.4298Z" fill="#FAB634"/>
</svg>
